<svg width="7" height="12" viewBox="0 0 7 12" fill="none" xmlns="http://www.w3.org/2000/svg">
<path d="M0.325865 0.331431C0.11715 0.541392 0 0.825413 0 1.12146C0 1.41751 0.11715 1.70153 0.325865 1.91149L4.29283 5.93449L0.325865 9.90145C0.11715 10.1114 0 10.3954 0 10.6915C0 10.9875 0.11715 11.2716 0.325865 11.4815C0.430041 11.5865 0.553981 11.6699 0.690538 11.7268C0.827095 11.7837 0.973565 11.813 1.1215 11.813C1.26943 11.813 1.4159 11.7837 1.55246 11.7268C1.68902 11.6699 1.81296 11.5865 1.91713 11.4815L6.66853 6.73012C6.77356 6.62595 6.85693 6.50201 6.91382 6.36545C6.97071 6.22889 7 6.08242 7 5.93449C7 5.78655 6.97071 5.64008 6.91382 5.50353C6.85693 5.36697 6.77356 5.24303 6.66853 5.13885L1.91713 0.331431C1.81296 0.226398 1.68902 0.143032 1.55246 0.0861397C1.4159 0.0292473 1.26943 -4.48227e-05 1.1215 -4.48227e-05C0.973565 -4.48227e-05 0.827095 0.0292473 0.690538 0.0861397C0.553981 0.143032 0.430041 0.226398 0.325865 0.331431Z" fill="#176DEA"/>
</svg>
