<svg width="14" height="14" viewBox="0 0 14 14" fill="none" xmlns="http://www.w3.org/2000/svg">
<path d="M6.33333 4.99983H7.66667C7.84348 4.99983 8.01305 5.07007 8.13807 5.1951C8.26309 5.32012 8.33333 5.48969 8.33333 5.6665C8.33333 5.84331 8.40357 6.01288 8.52859 6.13791C8.65362 6.26293 8.82319 6.33317 9 6.33317C9.17681 6.33317 9.34638 6.26293 9.4714 6.13791C9.59643 6.01288 9.66667 5.84331 9.66667 5.6665C9.66667 5.13607 9.45595 4.62736 9.08088 4.25229C8.70581 3.87721 8.1971 3.6665 7.66667 3.6665H6.33333C5.8029 3.6665 5.29419 3.87721 4.91912 4.25229C4.54404 4.62736 4.33333 5.13607 4.33333 5.6665V8.33317C4.33333 8.8636 4.54404 9.37231 4.91912 9.74738C5.29419 10.1225 5.8029 10.3332 6.33333 10.3332H7.66667C8.1971 10.3332 8.70581 10.1225 9.08088 9.74738C9.45595 9.37231 9.66667 8.8636 9.66667 8.33317C9.66667 8.15636 9.59643 7.98679 9.4714 7.86176C9.34638 7.73674 9.17681 7.6665 9 7.6665C8.82319 7.6665 8.65362 7.73674 8.52859 7.86176C8.40357 7.98679 8.33333 8.15636 8.33333 8.33317C8.33333 8.50998 8.26309 8.67955 8.13807 8.80457C8.01305 8.9296 7.84348 8.99983 7.66667 8.99983H6.33333C6.15652 8.99983 5.98695 8.9296 5.86193 8.80457C5.7369 8.67955 5.66667 8.50998 5.66667 8.33317V5.6665C5.66667 5.48969 5.7369 5.32012 5.86193 5.1951C5.98695 5.07007 6.15652 4.99983 6.33333 4.99983ZM7 0.333168C5.68146 0.333168 4.39252 0.724161 3.2962 1.4567C2.19987 2.18925 1.34539 3.23044 0.840801 4.44861C0.336217 5.66679 0.204195 7.00723 0.461429 8.30044C0.718664 9.59364 1.3536 10.7815 2.28595 11.7139C3.2183 12.6462 4.40619 13.2812 5.6994 13.5384C6.9926 13.7956 8.33305 13.6636 9.55122 13.159C10.7694 12.6544 11.8106 11.8 12.5431 10.7036C13.2757 9.60731 13.6667 8.31838 13.6667 6.99983C13.6667 6.12436 13.4942 5.25745 13.1592 4.44861C12.8242 3.63977 12.3331 2.90485 11.714 2.28579C11.095 1.66673 10.3601 1.17567 9.55122 0.840638C8.74238 0.505606 7.87548 0.333168 7 0.333168ZM7 12.3332C5.94516 12.3332 4.91402 12.0204 4.03696 11.4343C3.15989 10.8483 2.47631 10.0154 2.07264 9.04081C1.66897 8.06627 1.56336 6.99392 1.76914 5.95935C1.97493 4.92479 2.48288 3.97448 3.22876 3.2286C3.97464 2.48272 4.92495 1.97477 5.95952 1.76898C6.99408 1.56319 8.06644 1.66881 9.04098 2.07248C10.0155 2.47614 10.8485 3.15973 11.4345 4.03679C12.0205 4.91386 12.3333 5.945 12.3333 6.99983C12.3333 8.41432 11.7714 9.77088 10.7712 10.7711C9.77104 11.7713 8.41449 12.3332 7 12.3332Z" fill="#C1B5FC"/>
</svg>
