<svg width="256" height="224" viewBox="0 0 256 224" fill="none" xmlns="http://www.w3.org/2000/svg">
<path d="M59.3 2.40019L56.5 4.80019L56.2 58.9002C56.1 88.7002 56.3 113 56.8 113C57.2 113 63.8 103.3 71.4 91.5002C79.6 78.7002 86.8 68.6002 89.2 66.6002C98.8 58.4002 113.1 60.1002 123.7 70.6002C128.8 75.8002 131.5 80.9002 132.8 88.0002C134.2 95.6002 132.5 111.4 129.3 119.6C128.9 120.7 130 121 135.2 121C151.5 121 164 129.1 169.8 143.3C172.1 149 172.2 150.3 171.6 159.4C171.3 164.8 170.7 170.3 170.4 171.6L169.8 174H190.8H211.8L217.1 176.8C220.1 178.4 227.7 182.9 234 186.8C246.4 194.6 250.4 195.6 254 192C256 190 256 188.7 256 119.2C256 41.3002 256.1 42.7002 249.8 30.6002C245.2 21.8002 233.3 10.3002 224.6 6.10019C211.9 0.100192 211.6 0.000192422 133.3 0.000192422H62.1L59.3 2.40019ZM220.4 32.1002C225.1 34.3002 225.6 41.6002 221.1 43.9002C218.4 45.4002 93.7 45.4002 90.9 43.9002C86.4 41.5002 86.7 34.4002 91.4 32.2002C94.5 30.6002 217.1 30.6002 220.4 32.1002ZM220.4 62.1002C225.1 64.3002 225.6 71.6002 221.1 73.9002C219.8 74.6002 207.4 75.0002 185.6 75.0002H152.1L150.1 72.4002C147.4 68.9002 147.5 66.5002 150.5 63.5002L152.9 61.0002H185.4C207.6 61.0002 218.7 61.4002 220.4 62.1002ZM220.4 92.1002C225.1 94.3002 225.6 101.6 221.1 103.9C219.8 104.6 207.4 105 185.6 105H152.1L150.1 102.4C147.4 98.9002 147.5 96.5002 150.5 93.5002L152.9 91.0002H185.4C207.6 91.0002 218.7 91.4002 220.4 92.1002Z" fill="#176DEA"/>
<path d="M99.1 76.3C97.7 77 90 87.8 80.3 102.9L64 128.2V171V213.7L70.8 216.9L77.7 220H108.9C130.1 220 140.8 219.6 142.3 218.9C145.5 217.2 149 213.9 150.5 211C151.9 208.4 158 161.7 158 154.1C158 146.2 151.9 138.2 144.2 136C142.2 135.5 135 135 128.3 135C117.1 135 115.8 134.8 113.9 132.9C111.4 130.4 111.6 127.6 115.3 117.5C118.7 108.4 120.4 94.4 119 89C117.1 82 109.2 75 103.3 75C102.3 75 100.4 75.6 99.1 76.3Z" fill="#176DEA"/>
<path d="M2.6 124.1L0 126.1V173V219.9L2.8 222.1C5.4 224.2 6 224.2 25.4 223.7C43.9 223.2 45.4 223 47.4 221.1C49.5 219 49.5 218.3 49.8 174.3C50 143.5 49.7 128.7 49 126.9C47.2 122.5 44.4 122 24.1 122C6.6 122 5.1 122.1 2.6 124.1Z" fill="#176DEA"/>
</svg>
