<svg width="256" height="256" viewBox="0 0 256 256" fill="none" xmlns="http://www.w3.org/2000/svg">
<path d="M115.8 2.20009C112.5 3.90009 95.9 19.6001 55.6 59.6001L0 114.6V119.7C0 123.8 0.5 125.2 2.6 127.4C6 130.7 12.8 131 17.1 128L19.9 125.9L20.2 176.7L20.5 227.5L23.4 233.5C27.2 241.2 34.8 248.8 42.5 252.6L48.5 255.5L77.1 255.8L105.6 256.1L108.3 253.5L110.9 250.8L111.2 213.2C111.5 177.2 111.6 175.3 113.6 171.5C121 157.2 141.5 160.2 144.9 176C145.6 179.1 146 194.6 146 215.9V250.7L148.7 253.4L151.4 256.1L179.4 255.8L207.5 255.5L213.5 252.6C221.1 248.8 228.8 241.2 232.5 233.6C234.7 229 235.5 225.9 235.8 219.6C236.2 211.8 236.1 211.4 233.5 208.7C231.3 206.5 229.8 206 226 206C219.6 206 216.4 209.1 215.5 216.3C214.3 225 211.2 229.8 204.5 233.3C201 235.1 198.3 235.4 183.3 235.8L166 236.2V203.7C166 166.8 165.7 164.8 158 155.2C140 132.4 103.3 138.3 93 165.6C91.1 170.7 91 173.3 91 203.6V236.2L73.3 235.8C57.7 235.5 55 235.1 51.5 233.3C47 230.9 44.9 228.9 42.6 224.3C41.2 221.5 41 214.6 41 162.8V104.5L82.8 62.7001C123.7 21.9001 124.6 21.0001 128.5 21.0001C132.4 21.0001 133.3 21.9001 174.3 62.7001L216.1 104.5L216 135C216 151.8 215.9 166.7 216 168.1C216 169.6 217.2 171.9 218.6 173.4C222.4 177.1 229.6 177.1 233.4 173.4L236 170.7V148.3V125.9L238.9 127.9C243.2 131 250 130.8 253.4 127.4C255.5 125.2 256 123.8 256 119.7V114.6L201.8 60.2001C171.8 30.3001 145.5 4.70009 143 3.20009C139.3 1.00009 137.2 0.500094 129.5 0.200094C121.7 9.38401e-05 119.9 0.200094 115.8 2.20009Z" fill="#176DEA"/>
<path d="M96.6 99.6C92.9 103.4 92.9 110.6 96.6 114.4L99.3 117H128.6H157.9L160.7 114.6C163.1 112.5 163.5 111.4 163.5 107C163.5 102.6 163.1 101.5 160.7 99.4L157.9 97H128.6H99.3L96.6 99.6Z" fill="#176DEA"/>
</svg>
