<svg width="256" height="256" viewBox="0 0 256 256" fill="none" xmlns="http://www.w3.org/2000/svg">
<path d="M105.3 1.49982C87.6 4.79982 66.6 13.6998 52.5 23.9998C26.1 43.2998 7.19995 73.5998 1.49995 105.7C-0.400049 117.1 -0.400049 138.9 1.49995 150.3C6.09995 176.1 19.3 201.2 38.2 219.7C56.5 237.7 80.6 250.1 105.7 254.5C117.1 256.4 138.9 256.4 150.3 254.5C203.1 245.2 245.2 203.1 254.5 150.3C256.4 138.9 256.4 117.1 254.5 105.7C245.2 52.8998 203.1 10.7998 150.3 1.49982C139.6 -0.30018 115.5 -0.30018 105.3 1.49982ZM150.9 14.5998C196.5 23.9998 231.5 59.0998 241.6 105.5C243.9 116.4 243.9 139.6 241.6 150.5C238.2 166 232.7 179.2 224.5 191.5C207.4 217.3 181.4 234.9 150.5 241.6C139.6 243.9 116.4 243.9 105.5 241.6C58.9 231.5 24.5 197.1 14.4 150.5C12.1 139.6 12.1 116.4 14.4 105.5C22.9 66.3998 49 35.0998 85 20.6998C106 12.2998 129.4 10.1998 150.9 14.5998Z" fill="#176DEA"/>
<path d="M130.7 66.4997C126.1 69.6997 124 73.5997 124 79.0997C124 88.2997 131.7 94.4997 142.2 93.7997C151.6 93.0997 157.4 87.4997 157.4 78.9997C157.4 73.3997 155.4 69.8997 150 66.1997C145.1 62.8997 135.8 63.0997 130.7 66.4997Z" fill="#176DEA"/>
<path d="M119.5 107C116.8 107.5 111.3 109.1 107.4 110.5C101.4 112.7 100.1 113.6 99.4999 115.8C99.1999 117.3 98.6999 119.3 98.3999 120.2C97.9999 121.7 98.2999 121.7 103.2 120.4C110.4 118.5 112.3 118.6 115.5 121.2C118.1 123.2 118.2 123.7 117.7 128.9C117.3 132 115 141.4 112.6 149.9C105.7 173.4 105.6 180.4 111.8 186.2C119.4 193.4 130.1 194.5 144.7 189.6C153.7 186.6 154.7 185.8 155.7 181C156.3 177.9 156.2 177.7 153.9 178.4C152.6 178.8 149.3 179.3 146.5 179.6C142.3 180.1 141 179.9 138.6 177.9C135.9 175.8 135.8 175.4 136.4 170.1C136.7 167 139 157.4 141.5 148.7C147.3 128.1 147.9 122 144.8 116C140.9 108.5 131 105 119.5 107Z" fill="#176DEA"/>
</svg>
