<svg width="18" height="18" viewBox="0 0 18 18" fill="none" xmlns="http://www.w3.org/2000/svg">
<path d="M13.45 3.55C13.2522 3.55 13.0589 3.60865 12.8945 3.71853C12.73 3.82841 12.6018 3.98459 12.5261 4.16732C12.4505 4.35004 12.4306 4.55111 12.4692 4.74509C12.5078 4.93907 12.6031 5.11725 12.7429 5.25711C12.8828 5.39696 13.061 5.4922 13.2549 5.53079C13.4489 5.56937 13.65 5.54957 13.8327 5.47388C14.0154 5.39819 14.1716 5.27002 14.2815 5.10557C14.3914 4.94112 14.45 4.74778 14.45 4.55C14.45 4.28478 14.3447 4.03043 14.1571 3.84289C13.9696 3.65536 13.7152 3.55 13.45 3.55ZM17.2834 5.56667C17.2671 4.87525 17.1377 4.19117 16.9 3.54167C16.6881 2.98594 16.3583 2.48273 15.9334 2.06667C15.5207 1.63952 15.0163 1.31181 14.4584 1.10833C13.8106 0.863468 13.1257 0.731009 12.4334 0.716667C11.55 0.666667 11.2667 0.666667 9.00002 0.666667C6.73335 0.666667 6.45002 0.666667 5.56669 0.716667C4.87431 0.731009 4.18947 0.863468 3.54169 1.10833C2.98475 1.31387 2.4808 1.6413 2.06669 2.06667C1.63954 2.47932 1.31183 2.9837 1.10835 3.54167C0.863488 4.18945 0.731029 4.87429 0.716687 5.56667C0.666687 6.45 0.666687 6.73333 0.666687 9C0.666687 11.2667 0.666687 11.55 0.716687 12.4333C0.731029 13.1257 0.863488 13.8105 1.10835 14.4583C1.31183 15.0163 1.63954 15.5207 2.06669 15.9333C2.4808 16.3587 2.98475 16.6861 3.54169 16.8917C4.18947 17.1365 4.87431 17.269 5.56669 17.2833C6.45002 17.3333 6.73335 17.3333 9.00002 17.3333C11.2667 17.3333 11.55 17.3333 12.4334 17.2833C13.1257 17.269 13.8106 17.1365 14.4584 16.8917C15.0163 16.6882 15.5207 16.3605 15.9334 15.9333C16.3602 15.5188 16.6903 15.0152 16.9 14.4583C17.1377 13.8088 17.2671 13.1248 17.2834 12.4333C17.2834 11.55 17.3334 11.2667 17.3334 9C17.3334 6.73333 17.3334 6.45 17.2834 5.56667ZM15.7834 12.3333C15.7773 12.8623 15.6815 13.3864 15.5 13.8833C15.367 14.246 15.1533 14.5737 14.875 14.8417C14.6047 15.1171 14.2777 15.3304 13.9167 15.4667C13.4198 15.6481 12.8957 15.7439 12.3667 15.75C11.5334 15.7917 11.225 15.8 9.03335 15.8C6.84169 15.8 6.53335 15.8 5.70002 15.75C5.15076 15.7603 4.60385 15.6757 4.08335 15.5C3.73817 15.3567 3.42615 15.144 3.16669 14.875C2.89009 14.6073 2.67906 14.2793 2.55002 13.9167C2.34657 13.4126 2.23372 12.8766 2.21669 12.3333C2.21669 11.5 2.16669 11.1917 2.16669 9C2.16669 6.80833 2.16669 6.5 2.21669 5.66667C2.22042 5.12588 2.31915 4.58995 2.50835 4.08333C2.65506 3.73159 2.88024 3.41805 3.16669 3.16667C3.41986 2.88014 3.73276 2.65258 4.08335 2.5C4.59131 2.3167 5.12669 2.2209 5.66669 2.21667C6.50002 2.21667 6.80835 2.16667 9.00002 2.16667C11.1917 2.16667 11.5 2.16667 12.3334 2.21667C12.8623 2.22273 13.3864 2.31854 13.8834 2.5C14.262 2.64054 14.6019 2.86904 14.875 3.16667C15.1481 3.42265 15.3615 3.73561 15.5 4.08333C15.6852 4.59078 15.7811 5.12648 15.7834 5.66667C15.825 6.5 15.8334 6.80833 15.8334 9C15.8334 11.1917 15.825 11.5 15.7834 12.3333ZM9.00002 4.725C8.15486 4.72665 7.32916 4.97877 6.62723 5.44952C5.92531 5.92026 5.37867 6.5885 5.05638 7.3698C4.7341 8.15109 4.65062 9.01039 4.81652 9.83911C4.98241 10.6678 5.39022 11.4288 5.98842 12.0258C6.58662 12.6229 7.34836 13.0292 8.1774 13.1935C9.00644 13.3577 9.86558 13.2726 10.6462 12.9488C11.4269 12.625 12.0941 12.077 12.5635 11.3742C13.0328 10.6714 13.2834 9.84516 13.2834 9C13.2845 8.43759 13.1744 7.88051 12.9594 7.3608C12.7444 6.84109 12.4288 6.36901 12.0307 5.97171C11.6327 5.57441 11.16 5.25973 10.6399 5.04577C10.1197 4.83182 9.56243 4.7228 9.00002 4.725ZM9.00002 11.775C8.45118 11.775 7.91466 11.6123 7.45831 11.3073C7.00197 11.0024 6.64629 10.569 6.43625 10.0619C6.22622 9.55488 6.17127 8.99692 6.27834 8.45863C6.38542 7.92033 6.64971 7.42587 7.0378 7.03778C7.42589 6.64969 7.92035 6.3854 8.45865 6.27832C8.99694 6.17125 9.5549 6.2262 10.062 6.43623C10.569 6.64627 11.0024 7.00195 11.3073 7.45829C11.6123 7.91464 11.775 8.45116 11.775 9C11.775 9.36442 11.7032 9.72527 11.5638 10.0619C11.4243 10.3986 11.2199 10.7045 10.9622 10.9622C10.7046 11.2199 10.3986 11.4243 10.062 11.5638C9.72529 11.7032 9.36444 11.775 9.00002 11.775Z" fill="white"/>
</svg>
