<svg width="20" height="16" viewBox="0 0 20 16" fill="none" xmlns="http://www.w3.org/2000/svg">
<path d="M19.1594 1.29183C19.1595 1.14464 19.1206 1.00005 19.0466 0.872787C18.9726 0.745525 18.8663 0.640138 18.7383 0.567359C18.6104 0.494579 18.4654 0.457008 18.3182 0.45847C18.1711 0.459932 18.0269 0.500376 17.9004 0.575683C17.4127 0.866004 16.8875 1.08834 16.3396 1.23652C15.5571 0.565043 14.559 0.197602 13.5279 0.201358C12.3967 0.20266 11.3103 0.643519 10.4981 1.43084C9.68587 2.21817 9.21141 3.29032 9.17489 4.42092C6.94488 4.06531 4.92375 2.90136 3.49694 1.15104C3.41097 1.04674 3.30117 0.964636 3.17682 0.911663C3.05246 0.85869 2.9172 0.836397 2.78242 0.846666C2.64772 0.857757 2.51775 0.901493 2.40375 0.974092C2.28974 1.04669 2.19514 1.14597 2.12812 1.26333C1.78439 1.86318 1.58698 2.53563 1.55191 3.22609C1.51684 3.91655 1.64511 4.60554 1.92629 5.23712L1.92467 5.23875C1.79829 5.31659 1.69399 5.42555 1.62176 5.55521C1.54952 5.68487 1.51175 5.83089 1.51207 5.97932C1.51054 6.10176 1.51788 6.22415 1.53404 6.34552C1.61916 7.39408 2.08386 8.37557 2.84101 9.10594C2.78965 9.20379 2.7583 9.3109 2.7488 9.42101C2.73929 9.53111 2.75183 9.64201 2.78567 9.74722C3.11576 10.7757 3.81775 11.6439 4.75426 12.1821C3.80279 12.55 2.77544 12.6783 1.76272 12.5556C1.57528 12.5321 1.38541 12.573 1.22426 12.6716C1.06311 12.7702 0.940241 12.9206 0.875814 13.0982C0.811388 13.2757 0.809227 13.47 0.869686 13.6489C0.930145 13.8279 1.04963 13.981 1.20855 14.0831C2.9503 15.205 4.97828 15.8014 7.05003 15.8011C9.39941 15.8275 11.6917 15.0768 13.5702 13.6656C15.4488 12.2545 16.8083 10.2621 17.4374 7.99833C17.7316 7.0122 17.8818 5.98872 17.8834 4.95963C17.8834 4.90511 17.8834 4.84896 17.8825 4.79281C18.3176 4.32358 18.6547 3.77223 18.8739 3.17105C19.0932 2.56988 19.1902 1.93099 19.1594 1.29183ZM16.4038 3.96842C16.2662 4.13121 16.1965 4.34076 16.2093 4.55355C16.2175 4.69105 16.2167 4.82938 16.2167 4.95963C16.215 5.82925 16.0875 6.69405 15.8382 7.52718C15.3245 9.45334 14.1792 11.1514 12.5858 12.3493C10.9924 13.5473 9.04309 14.1759 7.05003 14.1344C6.33409 14.1347 5.62062 14.0505 4.92438 13.8838C5.81222 13.5977 6.64237 13.1566 7.37636 12.5809C7.51155 12.4744 7.61049 12.3288 7.6596 12.1639C7.70871 11.999 7.7056 11.8229 7.65067 11.6598C7.59575 11.4968 7.49172 11.3547 7.35284 11.2531C7.21397 11.1515 7.04706 11.0954 6.87503 11.0924C6.18239 11.0817 5.52097 10.8025 5.03014 10.3136C5.15465 10.29 5.27835 10.2607 5.40124 10.2257C5.58124 10.1745 5.73877 10.0642 5.84845 9.91253C5.95813 9.76088 6.01359 9.57673 6.00588 9.38972C5.99817 9.20272 5.92776 9.02376 5.80597 8.88164C5.68419 8.73953 5.51812 8.64254 5.3345 8.60628C4.93245 8.52688 4.55412 8.35583 4.22893 8.10643C3.90374 7.85703 3.64044 7.536 3.4595 7.16829C3.61011 7.18885 3.76168 7.20161 3.9136 7.20654C4.09409 7.20927 4.27076 7.15452 4.41808 7.05021C4.5654 6.9459 4.67572 6.79744 4.7331 6.6263C4.78808 6.4536 4.78526 6.26769 4.72504 6.09674C4.66483 5.9258 4.55052 5.77915 4.39944 5.67903C4.0329 5.43484 3.73265 5.10355 3.52557 4.71483C3.3185 4.32611 3.21108 3.8921 3.21292 3.45167C3.21292 3.39633 3.21454 3.34099 3.2178 3.28647C5.08552 5.02834 7.50807 6.05517 10.0586 6.18604C10.1874 6.19111 10.3156 6.16686 10.4336 6.11512C10.5516 6.06338 10.6563 5.98551 10.7398 5.88737C10.8224 5.78829 10.881 5.67138 10.9108 5.54584C10.9405 5.4203 10.9408 5.28956 10.9115 5.16391C10.8638 4.96504 10.8395 4.7613 10.839 4.55681C10.8398 3.84392 11.1233 3.16045 11.6274 2.65636C12.1315 2.15228 12.815 1.86875 13.5279 1.868C13.8946 1.86702 14.2576 1.94208 14.5939 2.08845C14.9303 2.23483 15.2326 2.44933 15.4818 2.71842C15.5779 2.82183 15.6989 2.89892 15.8332 2.94237C15.9675 2.98582 16.1107 2.99418 16.2492 2.96667C16.5915 2.90005 16.9289 2.81032 17.2591 2.69812C17.0339 3.15893 16.7461 3.5864 16.4038 3.96842Z" fill="white"/>
</svg>
